<svg width="677" height="515" viewBox="0 0 677 515" fill="none" xmlns="http://www.w3.org/2000/svg">
<g clip-path="url(#clip0_66_3842)">
<path d="M364.212 514.303C500.497 514.303 610.978 482.686 610.978 443.684C610.978 404.682 500.497 373.065 364.212 373.065C227.926 373.065 117.445 404.682 117.445 443.684C117.445 482.686 227.926 514.303 364.212 514.303Z" fill="#F5F5F5"/>
<path d="M598.995 168.969C598.995 168.969 555.282 212.753 579.959 277.723C604.636 342.692 537.656 450.739 537.656 450.739C537.656 450.739 538.361 450.633 539.708 450.4C629.489 434.525 674.097 331.676 624.173 255.273C605.637 226.87 590.373 193.545 598.995 168.969Z" fill="#2091F9"/>
<path d="M598.995 168.969C598.995 168.969 574.319 222.64 598.995 266.424C623.672 310.207 603.226 433.084 537.656 450.739" stroke="#535461" stroke-width="2" stroke-miterlimit="10"/>
<path d="M676.843 346.061C676.843 346.061 626.961 338.102 622.414 382.881C617.866 427.661 526.527 433.861 526.527 433.861C526.527 433.861 527.12 434.271 528.241 435.005C603.681 484.608 675.8 466.6 664.935 400.734C660.867 376.25 661.191 351.654 676.843 346.061Z" fill="#2091F9"/>
<path opacity="0.2" d="M676.843 346.061C676.843 346.061 626.961 338.102 622.414 382.881C617.866 427.661 526.527 433.861 526.527 433.861C526.527 433.861 527.12 434.271 528.241 435.005C603.681 484.608 675.8 466.6 664.935 400.734C660.867 376.25 661.191 351.654 676.843 346.061Z" fill="#F5F5F5"/>
<path d="M676.844 346.061C676.844 346.061 638.123 354.577 641.303 389.844C644.483 425.111 583.778 467.37 526.5 433.847" stroke="#535461" stroke-width="2" stroke-miterlimit="10"/>
<path opacity="0.2" d="M106.745 0.359615C101.062 0.161882 95.2386 0.359615 89.9084 2.35107C75.4056 7.76754 68.5314 25.4858 70.7664 40.8313C73.0014 56.1768 82.1952 69.5026 91.7345 81.7126C101.274 93.9227 111.61 105.977 116.841 120.553C119.45 127.834 120.67 135.99 118.019 143.257C113.929 154.464 101.598 160.728 89.7604 162.028C77.9226 163.327 66.0355 160.792 54.1555 159.909C49.1708 159.556 44.0451 159.514 39.3495 161.152C34.1956 162.939 29.9019 166.583 25.9536 170.382C10.5484 185.282 -1.7829 205.621 0.212379 226.976C2.46853 251.184 22.5906 270.322 44.6303 280.583C51.9276 283.987 59.6478 286.741 66.0708 291.599C82.9919 304.41 86.7921 328.413 85.1071 349.606C83.422 370.798 77.6829 392.012 80.8768 413.021C84.6347 437.456 101.267 459.524 123.701 469.834C143.689 479.015 168.704 478.443 186.451 465.456C195.101 459.1 201.644 450.336 207.334 441.248C215.922 427.536 222.89 412.872 228.098 397.549C230.572 390.268 232.899 382.436 238.673 377.373C242.199 374.259 246.767 372.514 251.287 371.159C264.908 367.077 279.256 365.954 293.004 362.324C306.753 358.694 320.586 351.929 328.059 339.832C338.635 322.665 333.7 300.709 333.749 280.512C333.833 234.497 361.323 193.298 371.469 148.455C374.783 133.794 376.016 117.573 368.613 104.501C363.579 95.5822 355.098 89.2265 346.179 84.2832C326.579 73.3796 304.299 68.5281 282.379 63.8037C251.914 57.2502 214.92 56.4028 191.308 35.203C168.648 14.8647 137.647 0.359615 106.745 0.359615Z" fill="#2091F9"/>
<g opacity="0.5">
<path opacity="0.5" d="M217.254 178.468C217.252 167.376 215.518 156.354 212.114 145.799L203.654 119.522C203.654 119.084 203.654 118.653 203.654 118.223C203.915 101.38 190.808 92.9764 185.76 93.8874C180.592 94.8195 166.251 87.6164 166.251 87.6164V87.8141C165.268 86.6804 164.381 85.4662 163.6 84.1843C166.078 82.3768 168.17 80.0915 169.753 77.4626C171.336 74.8337 172.379 71.9143 172.82 68.876C173.26 65.8377 173.09 62.7418 172.32 59.7703C171.549 56.7987 170.192 54.0115 168.331 51.5725C169.881 50.406 171.063 48.8174 171.736 46.9964C172.907 43.6985 172.011 39.9345 170.107 36.9967C169.298 35.7704 168.352 34.6403 167.287 33.6282C165.675 32.0281 163.914 30.5857 162.028 29.3205C157.325 26.0579 152.157 23.2543 146.517 22.2586C145.541 22.0277 144.524 22.0277 143.548 22.2586C142.701 22.601 141.895 23.0368 141.144 23.558C137.281 25.7613 132.472 24.8079 128.016 24.5749C123.56 24.3418 118.146 25.5918 116.735 29.7795C116.298 31.0718 116.327 32.4701 116.03 33.7977C115.325 37.0462 112.822 39.5673 110.891 42.272C108.959 44.9767 107.513 48.6277 109.121 51.5654C109.671 52.5541 110.531 53.4651 110.531 54.595C110.531 55.4071 110.052 56.1345 109.826 56.9113C109.34 58.6768 110.256 60.4422 111.666 61.7204C112.274 62.3766 112.989 62.9236 113.781 63.3376C116.016 64.4816 118.59 64.8347 120.867 65.894C122.004 66.4287 123.047 67.1442 123.955 68.0126C125.068 69.1795 125.938 70.5566 126.514 72.0636C127.09 73.5707 127.361 75.1775 127.311 76.7905L127.784 76.84C127.784 76.9812 127.784 77.1154 127.784 77.2566C128.277 77.3131 128.799 77.3625 129.313 77.3837C130.054 78.5808 130.901 79.7083 131.845 80.7522C131.685 81.3549 131.504 81.9669 131.302 82.5883C129.645 83.7394 116.094 92.7786 100.682 90.6036C84.2328 88.2802 74.8275 160.312 74.8275 160.312C74.2178 164.431 73.9208 168.59 73.9391 172.755C73.8686 183.347 76.0895 197.21 88.4631 195.169L95.0412 193.001V228.628C95.0412 228.628 95.9789 238.388 92.6934 244.871C89.4078 251.353 103.036 249.051 103.036 249.051C103.036 249.051 103.558 249.595 104.517 250.52L104.214 251.375L104.616 251.784C102.823 257.922 100.406 263.859 97.4031 269.503L97.7908 269.7C97.5441 270.173 97.4031 270.406 97.4031 270.406C97.4031 270.406 102.465 272.998 109.431 276.338C115.029 295.293 127.283 339.189 123.25 347.551L123.363 347.791C124.117 349.358 128.333 358.602 127.48 367.07C126.712 374.64 137.175 409.039 141.081 421.531L139.234 421.905L145.812 445.605L144.401 460.943C144.401 460.943 136.413 482.32 155.21 478.139C174.006 473.958 168.838 456.763 168.838 456.763L169.311 421.905C169.311 421.905 167.499 420.895 165.264 419.928C163.727 415.768 160.378 405.938 160.378 399.138C160.378 390.31 154.265 352.197 154.265 352.197V352.12V351.971V351.929L154.23 351.421V351.336C154.23 350.863 154.152 350.213 154.096 349.422V349.38C153.391 339.076 151.276 304.071 152.82 285.823C154.178 284.895 155.59 284.051 157.05 283.294C161.626 294.876 173.421 326.167 172.667 339.295C171.729 355.538 172.434 342.784 172.667 340.708C172.737 340.065 172.787 340.842 172.808 342.586C172.808 342.904 172.808 343.257 172.808 343.631C172.808 344.006 172.808 344.422 172.808 344.853C172.808 345.284 172.808 345.75 172.808 346.265C172.808 346.51 172.808 346.76 172.808 347.014C172.808 347.522 172.808 348.054 172.808 348.61C172.808 348.888 172.808 349.17 172.808 349.457C172.808 350.87 172.808 352.437 172.758 354.069C172.758 354.394 172.758 354.723 172.758 355.057C172.758 356.053 172.758 357.07 172.709 358.101C172.709 359.513 172.653 360.883 172.625 362.303C172.554 365.481 172.462 368.694 172.35 371.702C172.35 372.037 172.338 372.368 172.314 372.698C172.291 373.357 172.265 374.002 172.237 374.633C172.209 375.264 172.18 375.881 172.152 376.483C172.124 377.081 172.093 377.663 172.06 378.227C172.025 378.891 171.983 379.527 171.948 380.134L169.395 379.767L168.853 385.642C167.997 394.971 169.201 404.373 172.378 413.184C173.252 415.599 173.929 417.598 174.077 418.311C174.549 420.634 174.077 437.378 174.077 437.378C174.077 437.378 176.897 459.22 190.06 455.033C195.983 453.147 198.859 447.413 200.234 441.664C201.76 435.001 201.191 428.028 198.605 421.7C196.737 416.997 194.826 410.401 196.173 405.303C198.521 396.475 198.521 383.926 198.521 383.926L197.069 383.722C197.43 383.032 197.758 382.325 198.049 381.603C198.049 381.603 197.576 349.535 201.806 345.354C204.133 343.052 203.922 337.523 203.217 333.003C202.209 326.462 201.973 319.826 202.511 313.23C202.801 309.833 203.217 306.874 203.703 305.822C204.944 303.364 206.185 278.591 200.692 266.671L201.821 266.318L201.644 265.442L201.821 265.385C202.649 267.6 203.59 269.771 204.641 271.889C204.918 272.107 205.237 272.266 205.578 272.356C220.8 269.679 221.414 255.449 220.568 247.681C221.209 247.992 221.562 248.19 221.562 248.19L222.972 227.71C224.417 224.441 224.953 220.267 224.918 215.755C224.981 199.625 217.254 178.468 217.254 178.468ZM200.474 236.679C199.43 227.76 197.985 219.363 197.985 219.363L190.935 194.265V185.127L202.117 226.933L200.474 236.679Z" fill="url(#paint0_linear_66_3842)"/>
</g>
<path d="M168.774 373.771L168.252 379.513C167.429 388.635 168.596 397.828 171.672 406.454C172.511 408.82 173.166 410.769 173.307 411.468C173.759 413.742 173.307 430.09 173.307 430.09C173.307 430.09 176.029 451.438 188.727 447.349C194.438 445.513 197.187 439.899 198.541 434.285C200.009 427.774 199.458 420.969 196.962 414.78C195.157 410.183 193.31 403.721 194.614 398.756C196.884 390.127 196.884 377.867 196.884 377.867L168.774 373.771Z" fill="#5A5773"/>
<path d="M155.172 275.216C155.172 275.216 172.854 318.364 171.945 334.253C171.035 350.142 171.719 337.657 171.945 335.616C172.347 331.979 171.945 375.163 170.584 380.106C170.584 380.106 189.176 393.728 196.431 375.565C196.431 375.565 195.98 344.232 200.055 340.143C202.297 337.897 202.079 332.488 201.416 328.074C200.438 321.689 200.201 315.213 200.711 308.774C200.986 305.455 201.367 302.531 201.86 301.535C203.221 298.809 204.582 267.928 196.417 259.298L155.172 275.216Z" fill="#605D82"/>
<path opacity="0.1" d="M172.855 380.127C174.216 375.134 174.618 331.979 174.216 335.637C173.99 337.678 173.306 350.171 174.216 334.274C175.125 318.378 157.443 275.237 157.443 275.237L197.003 259.997C196.82 259.764 196.629 259.545 196.439 259.341L155.18 275.237C155.18 275.237 172.862 318.385 171.953 334.274C171.043 350.164 171.727 337.678 171.953 335.637C172.355 332 171.953 375.184 170.592 380.127C170.592 380.127 178.016 385.565 185.313 384.986C178.82 384.499 172.855 380.127 172.855 380.127Z" fill="black"/>
<path d="M139.754 415.098L146.099 438.261L144.739 453.246C144.739 453.246 137.032 474.135 155.166 470.046C173.3 465.957 168.315 449.157 168.315 449.157L168.767 415.098C168.767 415.098 161.512 411.009 158.339 411.468C155.166 411.927 139.754 415.098 139.754 415.098Z" fill="#5A5773"/>
<path d="M108.473 264.319C108.473 264.319 129.328 331.986 124.343 342.431C124.343 342.431 129.328 352.424 128.425 361.498C127.523 370.573 142.935 419.173 142.935 419.173L165.61 415.084C165.61 415.084 160.167 401.461 160.167 392.832C160.167 384.202 154.272 346.929 154.272 346.929C154.272 346.929 149.288 278.803 155.182 271.537L108.473 264.319Z" fill="#605D82"/>
<g opacity="0.1">
<path opacity="0.1" d="M153.421 277.073C149.663 292.496 153.816 349.253 153.816 349.253C153.816 349.253 159.71 386.49 159.71 395.155C159.71 401.744 162.876 411.235 164.378 415.359L165.604 415.14C165.604 415.14 160.162 401.518 160.162 392.888C160.162 384.259 154.267 346.986 154.267 346.986C154.267 346.986 150.474 295.116 153.421 277.073Z" fill="black"/>
<path opacity="0.1" d="M124.344 342.431L124.457 342.664C124.492 342.431 124.527 342.184 124.548 341.958C124.488 342.119 124.42 342.277 124.344 342.431V342.431Z" fill="black"/>
<path opacity="0.1" d="M154.153 273.768C154.359 272.985 154.705 272.245 155.175 271.586L108.473 264.319C108.473 264.319 108.748 265.202 109.22 266.777L154.153 273.768Z" fill="black"/>
</g>
<path d="M217.288 239.793C217.288 239.793 224.092 265.216 203.688 268.86C203.357 268.774 203.047 268.62 202.778 268.408C202.778 268.408 190.99 245.245 200.057 236.164L217.288 239.793Z" fill="#FAC3CA"/>
<path d="M133.861 70.8657C133.861 70.8657 135.222 89.9328 120.261 99.0215C105.3 108.11 151.988 133.081 151.988 133.081L176.475 94.0217C176.475 94.0217 166.054 95.3705 159.708 77.2214L133.861 70.8657Z" fill="#FAC3CA"/>
<path opacity="0.1" d="M123.882 100.37C123.882 100.37 147.008 148.511 167.863 103.096L200.056 262.949C200.056 262.949 150.174 278.394 149.729 285.66C149.285 292.927 99.4102 267.045 99.4102 267.045C99.4102 267.045 110.289 247.06 107.575 234.801C104.86 222.541 123.882 100.37 123.882 100.37Z" fill="black"/>
<path d="M123.882 99.4592C123.882 99.4592 147.008 147.6 167.863 102.185L200.056 262.045C200.056 262.045 150.174 277.49 149.729 284.756C149.285 292.023 99.4102 266.134 99.4102 266.134C99.4102 266.134 110.289 246.149 107.575 233.889C104.86 221.63 123.882 99.4592 123.882 99.4592Z" fill="#E1E7EF"/>
<path d="M146.56 427.816C146.56 427.816 140.666 414.646 154.266 414.646C167.866 414.646 165.603 426.453 165.603 426.453L146.56 427.816Z" fill="#5A5773"/>
<path d="M177.392 393.75C177.392 393.75 171.949 379.668 185.556 379.216C199.163 378.764 192.36 391.928 192.36 391.928L177.392 393.75Z" fill="#5A5773"/>
<path opacity="0.1" d="M165.828 89.2266C165.828 89.2266 179.654 96.2885 184.646 95.3563C189.638 94.4241 202.78 103.075 201.877 120.334L210.07 146.082C213.347 156.406 215.012 167.175 215.005 178.009V178.009C215.005 178.009 226.794 210.705 220.448 225.239L219.087 245.224C219.087 245.224 208.66 239.32 197.774 241.135L200.516 224.815L188.249 178.482L167.845 128.978L165.828 89.2266Z" fill="black"/>
<path d="M165.828 88.3298C165.828 88.3298 179.654 95.3917 184.646 94.4596C189.638 93.5274 202.78 102.178 201.877 119.437L210.07 145.185C213.347 155.509 215.012 166.279 215.005 177.112V177.112C215.005 177.112 226.794 209.809 220.448 224.342L219.087 244.327C219.087 244.327 208.66 238.423 197.774 240.238L200.495 223.89L188.249 177.571L167.866 128.067L165.828 88.3298Z" fill="#67647E"/>
<path opacity="0.1" d="M188.728 143.511V194.83L195.532 219.356C195.532 219.356 200.065 246.149 198.704 254.327C197.344 262.504 175.579 264.319 169.685 257.504C163.791 250.69 166.963 192.535 166.963 192.535L165.828 107.404L166.738 104.678L188.728 143.511Z" fill="black"/>
<path d="M189.658 141.244V192.563L196.461 217.089C196.461 217.089 200.995 243.882 199.634 252.06C198.273 260.237 176.509 262.052 170.614 255.237C164.72 248.423 167.893 190.268 167.893 190.268L166.758 105.116L189.658 141.244Z" fill="#67647E"/>
<path opacity="0.1" d="M98.2695 183.934L112.779 229.13L105.976 248.43C105.976 248.43 138.168 282.489 158.572 266.141C158.572 266.141 160.842 196.652 156.302 180.304C151.761 163.956 130.004 108.979 130.004 108.979L125.498 94.4666L101.47 108.089L98.2695 183.934Z" fill="black"/>
<path d="M97.1332 181.66V226.15C97.1332 226.15 98.0427 235.69 94.863 242.046C91.6832 248.402 104.839 246.135 104.839 246.135C104.839 246.135 137.032 280.194 157.436 263.846C157.436 263.846 159.706 194.357 155.166 178.009C150.625 161.66 128.867 106.684 128.867 106.684L124.334 92.1501L100.306 105.773L97.1332 181.66Z" fill="#67647E"/>
<path opacity="0.1" d="M132.273 84.248C132.273 84.248 118.447 94.4666 102.577 92.1927C86.7059 89.9187 77.639 160.319 77.639 160.319C77.639 160.319 71.7448 196.652 90.7881 193.474L132.957 179.393C132.957 179.393 123.89 169.852 125.251 157.593L104.84 165.764L105.756 126.711L132.273 84.248Z" fill="black"/>
<path opacity="0.1" d="M78.5413 159.408C78.5413 159.408 72.6472 195.741 91.6905 192.563L133.859 178.482C133.859 178.482 124.792 168.948 126.153 156.682L105.756 164.86L78.5413 159.408Z" fill="black"/>
<path d="M125.152 161.47C125.152 161.47 139.303 142.833 149.723 151.781C160.144 160.728 128.889 177.126 128.889 177.126L125.152 161.47Z" fill="#FAC3CA"/>
<path d="M132.273 83.3369C132.273 83.3369 118.447 93.5555 102.577 91.2815C86.7059 89.0076 77.639 159.408 77.639 159.408C77.639 159.408 71.7448 195.741 90.7881 192.563L132.957 178.482C132.957 178.482 123.89 168.941 125.251 156.682L104.84 164.859L105.756 125.8L128.882 106.733L132.273 83.3369Z" fill="#67647E"/>
<path opacity="0.1" d="M160.159 78.1113L134.312 71.7556C134.312 71.7556 135.658 73.281 134.086 79.2483C138.246 84.0292 143.357 90.3778 150.182 90.3778C155.066 90.387 159.821 88.8085 163.733 85.8794C162.273 83.4225 161.075 80.8189 160.159 78.1113Z" fill="black"/>
<path d="M149.729 89.4739C162.252 89.4739 172.403 79.3058 172.403 66.7628C172.403 54.2198 162.252 44.0518 149.729 44.0518C137.206 44.0518 127.055 54.2198 127.055 66.7628C127.055 79.3058 137.206 89.4739 149.729 89.4739Z" fill="#FAC3CA"/>
<path opacity="0.1" d="M158.325 56.9042C163.585 56.0073 169.367 53.6699 171.129 48.6277C172.257 45.4004 171.397 41.7282 169.557 38.854C167.717 35.9798 165.009 33.7694 162.217 31.7921C157.684 28.6001 152.685 25.8601 147.228 24.8997C146.287 24.6744 145.306 24.6744 144.366 24.8997C143.547 25.2352 142.769 25.6615 142.046 26.1708C138.316 28.3247 133.677 27.3926 129.355 27.1666C125.033 26.9406 119.851 28.1623 118.49 32.2511C118.067 33.5152 118.096 34.8782 117.785 36.1776C117.08 39.3554 114.69 41.8271 112.85 44.4753C111.01 47.1235 109.593 50.7039 111.144 53.5569C111.673 54.5244 112.554 55.4141 112.554 56.5158C112.418 57.2988 112.181 58.0608 111.849 58.7827C111.207 61.1272 113.076 63.493 115.233 64.6087C117.39 65.7245 119.872 66.0705 122.072 67.1086C124.131 68.1263 125.855 69.7148 127.038 71.6853C128.222 73.6558 128.816 75.9254 128.749 78.2241C130.751 78.4571 133.085 78.5772 134.438 77.08C135.045 76.4092 135.341 75.5123 135.891 74.7991C136.596 73.8669 137.696 73.3161 138.598 72.5675C143.343 68.6623 139.973 63.267 142.659 59.0581C144.069 56.8901 146.311 57.5539 148.582 57.5892C151.844 57.6657 155.106 57.4363 158.325 56.9042V56.9042Z" fill="black"/>
<path d="M157.872 56.4523C163.132 55.5554 168.913 53.218 170.676 48.1758C171.804 44.9485 170.944 41.2763 169.104 38.4021C167.264 35.5279 164.556 33.3175 161.764 31.3402C157.231 28.1482 152.232 25.4082 146.775 24.4478C145.834 24.2225 144.853 24.2225 143.912 24.4478C143.094 24.7833 142.316 25.2096 141.593 25.7189C137.863 27.8728 133.224 26.9407 128.902 26.7147C124.58 26.4887 119.398 27.7104 118.037 31.7992C117.614 33.0633 117.642 34.4263 117.332 35.7257C116.627 38.9035 114.237 41.3752 112.397 44.0234C110.557 46.6716 109.14 50.252 110.691 53.105C111.219 54.0725 112.101 54.9622 112.101 56.0639C111.965 56.8469 111.728 57.6089 111.396 58.3308C110.754 60.6753 112.622 63.0411 114.78 64.1568C116.937 65.2726 119.419 65.6186 121.619 66.6567C123.686 67.6734 125.417 69.265 126.605 71.2413C127.793 73.2175 128.387 75.4947 128.317 77.8004C130.319 78.0335 132.653 78.1535 134.007 76.6564C134.613 75.9855 134.909 75.0887 135.459 74.3754C136.164 73.4432 137.264 72.8924 138.166 72.1438C142.911 68.2386 139.541 62.8433 142.227 58.6344C143.637 56.4664 145.88 57.1303 148.15 57.1656C151.406 57.2314 154.661 56.9926 157.872 56.4523Z" fill="#4A4347"/>
<path opacity="0.1" d="M185.32 132.841C185.32 132.841 190.305 158.73 188.042 168.722C186.659 174.535 186.864 180.614 188.634 186.321" fill="black"/>
<path opacity="0.1" d="M104.74 143.737C104.74 143.737 102.569 160.997 106.186 164.626Z" fill="black"/>
<path d="M231.347 356.434C231.627 356.434 231.896 356.323 232.094 356.124C232.293 355.926 232.404 355.656 232.404 355.375C232.404 355.094 232.293 354.825 232.094 354.626C231.896 354.428 231.627 354.316 231.347 354.316C231.066 354.316 230.797 354.428 230.599 354.626C230.4 354.825 230.289 355.094 230.289 355.375C230.289 355.656 230.4 355.926 230.599 356.124C230.797 356.323 231.066 356.434 231.347 356.434Z" fill="black"/>
<g opacity="0.5">
<path opacity="0.5" d="M556.986 233.028V232.442L364.621 84.2831C364.5 84.1931 364.353 84.1445 364.202 84.1445C364.051 84.1445 363.904 84.1931 363.782 84.2831L171.41 232.442V462.095H171.777V462.462H557.36V232.809L556.986 233.028Z" fill="url(#paint1_linear_66_3842)"/>
</g>
<path d="M550.347 455.69H178.082V233.946L364.214 90.5896L550.347 233.946V455.69Z" fill="white"/>
<path d="M536.949 442.547H191.477V236.764L364.213 103.725L536.949 236.764V442.547Z" fill="#E0E0E0"/>
<path d="M422.816 100.65L212.078 155.986L282.343 424.447L493.082 369.11L422.816 100.65Z" fill="#2091F9"/>
<path d="M474.199 141.435H256.34V418.968H474.199V141.435Z" fill="#F5F5F5"/>
<path opacity="0.05" d="M179.844 234.299L365.976 345.171L179.844 456.043V234.299Z" fill="black"/>
<path d="M178.434 234.299L364.566 345.171L178.434 456.043V234.299Z" fill="white"/>
<path opacity="0.05" d="M549.289 234.299L363.156 345.171L549.289 456.043V234.299Z" fill="black"/>
<path d="M550.699 234.299L364.566 345.171L550.699 456.043V234.299Z" fill="white"/>
<path opacity="0.05" d="M178.434 452.512L364.566 307.037L550.698 452.512H178.434Z" fill="black"/>
<path d="M178.434 456.042L364.566 310.567L550.698 456.042H178.434Z" fill="white"/>
<path d="M216.258 472.885C216.258 472.885 206.909 441.107 218.014 417.704C222.732 407.921 224.154 396.869 222.068 386.208C221.038 381.155 219.549 376.207 217.619 371.427" stroke="#535461" stroke-width="2" stroke-miterlimit="10"/>
<path d="M224.523 356.639C224.523 360.537 217.472 371.829 217.472 371.829C217.472 371.829 210.422 360.53 210.422 356.639C210.422 354.766 211.165 352.97 212.487 351.646C213.809 350.321 215.602 349.577 217.472 349.577C219.342 349.577 221.136 350.321 222.458 351.646C223.78 352.97 224.523 354.766 224.523 356.639Z" fill="#6C63FF"/>
<path d="M236.192 378.221C234.077 381.49 222.035 387.14 222.035 387.14C222.035 387.14 222.254 373.821 224.369 370.551C225.423 369.073 227.006 368.058 228.789 367.718C230.571 367.379 232.416 367.74 233.939 368.728C235.462 369.716 236.546 371.254 236.966 373.022C237.385 374.79 237.108 376.652 236.192 378.221Z" fill="#6C63FF"/>
<path d="M235.654 415.091C232.178 416.842 218.938 415.634 218.938 415.634C218.938 415.634 225.84 404.251 229.309 402.499C230.139 402.034 231.055 401.742 232 401.64C232.946 401.539 233.903 401.63 234.813 401.909C235.722 402.188 236.567 402.648 237.294 403.262C238.022 403.876 238.617 404.631 239.046 405.481C239.474 406.332 239.727 407.261 239.787 408.212C239.848 409.163 239.716 410.116 239.399 411.015C239.082 411.913 238.587 412.738 237.943 413.44C237.3 414.141 236.521 414.705 235.654 415.098V415.091Z" fill="#6C63FF"/>
<path d="M228.999 442.908C225.868 445.224 212.613 446.269 212.613 446.269C212.613 446.269 217.492 433.882 220.623 431.566C222.129 430.56 223.964 430.172 225.748 430.484C227.531 430.796 229.127 431.783 230.204 433.241C231.281 434.699 231.756 436.516 231.532 438.316C231.307 440.115 230.4 441.759 228.999 442.908V442.908Z" fill="#6C63FF"/>
<path d="M207.222 387.888C210.042 390.6 223.008 393.418 223.008 393.418C223.008 393.418 219.828 380.487 217.036 377.776C215.678 376.573 213.91 375.941 212.099 376.01C210.288 376.079 208.573 376.844 207.31 378.146C206.047 379.448 205.333 381.188 205.317 383.003C205.3 384.818 205.983 386.57 207.222 387.895V387.888Z" fill="#6C63FF"/>
<path d="M199.846 420.521C203.322 422.273 216.563 421.065 216.563 421.065C216.563 421.065 209.661 409.681 206.192 407.93C204.535 407.18 202.654 407.1 200.94 407.707C199.226 408.313 197.813 409.559 196.994 411.185C196.175 412.81 196.015 414.689 196.546 416.43C197.078 418.171 198.26 419.639 199.846 420.528V420.521Z" fill="#6C63FF"/>
<path d="M197.024 453.218C200.155 455.534 213.41 456.579 213.41 456.579C213.41 456.579 208.531 444.193 205.4 441.876C204.661 441.271 203.807 440.823 202.89 440.558C201.972 440.293 201.011 440.217 200.064 440.336C199.116 440.454 198.203 440.764 197.379 441.247C196.554 441.73 195.837 442.375 195.269 443.144C194.701 443.912 194.295 444.789 194.076 445.719C193.856 446.65 193.828 447.615 193.992 448.557C194.156 449.499 194.509 450.398 195.031 451.199C195.552 452 196.23 452.687 197.024 453.218V453.218Z" fill="#6C63FF"/>
<path opacity="0.5" d="M356.457 154.147H269.031V161.209H356.457V154.147Z" fill="#6C63FF"/>
<path opacity="0.5" d="M457.984 182.394H269.031V189.456H457.984V182.394Z" fill="#6C63FF"/>
<path opacity="0.5" d="M457.984 200.755H269.031V207.817H457.984V200.755Z" fill="#6C63FF"/>
<path opacity="0.4" d="M457.984 219.116H269.031V226.178H457.984V219.116Z" fill="#6C63FF"/>
<path opacity="0.4" d="M457.984 237.477H269.031V244.539H457.984V237.477Z" fill="#6C63FF"/>
<path opacity="0.3" d="M376.903 255.838H269.031V262.9H376.903V255.838Z" fill="#6C63FF"/>
<path opacity="0.3" d="M416.386 274.199H269.031V281.261H416.386V274.199Z" fill="#6C63FF"/>
</g>
<defs>
<linearGradient id="paint0_linear_66_3842" x1="73.9461" y1="250.421" x2="224.84" y2="250.421" gradientUnits="userSpaceOnUse">
<stop stop-color="#808080" stop-opacity="0.25"/>
<stop offset="0.54" stop-color="#808080" stop-opacity="0.12"/>
<stop offset="1" stop-color="#808080" stop-opacity="0.1"/>
</linearGradient>
<linearGradient id="paint1_linear_66_3842" x1="245956" y1="280247" x2="245956" y2="77563.5" gradientUnits="userSpaceOnUse">
<stop stop-color="#808080" stop-opacity="0.25"/>
<stop offset="0.54" stop-color="#808080" stop-opacity="0.12"/>
<stop offset="1" stop-color="#808080" stop-opacity="0.1"/>
</linearGradient>
<clipPath id="clip0_66_3842">
<rect width="677" height="514" fill="white" transform="translate(0 0.303223)"/>
</clipPath>
</defs>
</svg>
