<svg width="42" height="42" viewBox="0 0 42 42" fill="none" xmlns="http://www.w3.org/2000/svg">
<path d="M37.1845 10.6854C35.9597 11.2137 34.6269 11.5939 33.254 11.742C34.6793 10.8952 35.7467 9.55742 36.2559 7.9796C34.9184 8.77527 33.4531 9.33321 31.9251 9.62867C31.2865 8.94593 30.5141 8.40203 29.656 8.03086C28.798 7.65969 27.8727 7.4692 26.9379 7.47127C23.1554 7.47127 20.1134 10.5373 20.1134 14.2997C20.1134 14.828 20.1775 15.3564 20.2815 15.8647C14.6179 15.5685 9.5666 12.8628 6.20842 8.72008C5.59652 9.76522 5.27587 10.9552 5.27981 12.1663C5.27981 14.5359 6.4846 16.6252 8.32179 17.854C7.2391 17.8114 6.18177 17.5138 5.23579 16.9854V17.0695C5.23579 20.3876 7.58131 23.1374 10.7073 23.7698C10.1204 23.9223 9.51659 24.0003 8.91017 24.002C8.46588 24.002 8.04561 23.958 7.62133 23.8979C8.48589 26.6037 11.0035 28.569 14.0015 28.633C11.656 30.4702 8.71805 31.5509 5.52798 31.5509C4.9556 31.5509 4.42726 31.5309 3.87891 31.4668C6.90487 33.4081 10.4952 34.5288 14.3617 34.5288C26.9139 34.5288 33.7823 24.1301 33.7823 15.1042C33.7823 14.808 33.7823 14.5118 33.7623 14.2156C35.0912 13.243 36.2559 12.0382 37.1845 10.6854Z" fill="white"/>
</svg>
