<svg width="41" height="42" viewBox="0 0 41 42" fill="none" xmlns="http://www.w3.org/2000/svg">
<path d="M35.236 4.98962H5.77692C5.06847 4.98962 4.49609 5.562 4.49609 6.27046V35.7296C4.49609 36.438 5.06847 37.0104 5.77692 37.0104H35.236C35.9445 37.0104 36.5169 36.438 36.5169 35.7296V6.27046C36.5169 5.562 35.9445 4.98962 35.236 4.98962ZM13.9943 32.2753H9.24317V16.9934H13.9943V32.2753ZM11.6207 14.9041C11.0761 14.9041 10.5437 14.7425 10.0908 14.44C9.63794 14.1374 9.28498 13.7073 9.07655 13.2041C8.86812 12.7009 8.81359 12.1472 8.91984 11.613C9.0261 11.0789 9.28837 10.5882 9.6735 10.203C10.0586 9.81792 10.5493 9.55565 11.0835 9.4494C11.6177 9.34314 12.1714 9.39768 12.6745 9.6061C13.1777 9.81453 13.6078 10.1675 13.9104 10.6203C14.213 11.0732 14.3745 11.6056 14.3745 12.1503C14.3705 13.6713 13.1377 14.9041 11.6207 14.9041ZM31.7818 32.2753H27.0347V24.8425C27.0347 23.0694 27.0027 20.7919 24.5651 20.7919C22.0955 20.7919 21.7153 22.7211 21.7153 24.7144V32.2753H16.9722V16.9934H21.5271V19.0828H21.5912C22.2236 17.882 23.7726 16.6132 26.0861 16.6132C30.8972 16.6132 31.7818 19.7792 31.7818 23.8939V32.2753Z" fill="white"/>
</svg>
