<svg width="42" height="42" viewBox="0 0 42 42" fill="none" xmlns="http://www.w3.org/2000/svg">
<path d="M35.2517 4.98962H5.79255C5.08409 4.98962 4.51172 5.562 4.51172 6.27046V35.7296C4.51172 36.438 5.08409 37.0104 5.79255 37.0104H35.2517C35.9601 37.0104 36.5325 36.438 36.5325 35.7296V6.27046C36.5325 5.562 35.9601 4.98962 35.2517 4.98962ZM31.5533 14.3357H28.9956C26.9903 14.3357 26.6021 15.2883 26.6021 16.6892V19.7752H31.3892L30.7648 24.6064H26.6021V37.0104H21.6108V24.6104H17.4361V19.7752H21.6108V16.2129C21.6108 12.0782 24.1365 9.82476 27.8268 9.82476C29.596 9.82476 31.113 9.95685 31.5573 10.0169V14.3357H31.5533Z" fill="white"/>
</svg>
